<?xml version="1.0" encoding="UTF-8"?>
<svg xmlns="http://www.w3.org/2000/svg" xmlns:xlink="http://www.w3.org/1999/xlink" width="854" height="480" viewBox="0 0 854 480">
<defs>
<g>
<g id="glyph-0-0">
<path d="M 1.859375 0.199219 C 1.308594 0.199219 0.875 0.0742188 0.558594 -0.167969 C 0.289062 -0.371094 0.15625 -0.609375 0.15625 -0.875 C 0.15625 -1.011719 0.199219 -1.125 0.28125 -1.214844 C 0.363281 -1.304688 0.476562 -1.351562 0.621094 -1.351562 C 0.816406 -1.351562 0.960938 -1.25 1.050781 -1.050781 C 1.175781 -0.785156 1.457031 -0.652344 1.890625 -0.652344 C 2.265625 -0.652344 2.625 -0.734375 2.976562 -0.894531 C 3.339844 -1.0625 3.519531 -1.246094 3.519531 -1.445312 C 3.519531 -1.71875 3.40625 -1.898438 3.179688 -1.984375 C 3.019531 -2.046875 2.699219 -2.085938 2.214844 -2.097656 C 1.839844 -2.105469 1.5 -2.175781 1.203125 -2.308594 C 0.800781 -2.488281 0.605469 -2.746094 0.613281 -3.082031 C 0.617188 -3.503906 0.84375 -3.894531 1.289062 -4.246094 C 1.734375 -4.597656 2.222656 -4.777344 2.761719 -4.777344 C 2.972656 -4.777344 3.234375 -4.726562 3.546875 -4.628906 C 3.9375 -4.507812 4.132812 -4.367188 4.132812 -4.210938 C 4.132812 -4.097656 4.09375 -3.996094 4.015625 -3.910156 C 3.925781 -3.8125 3.816406 -3.761719 3.679688 -3.761719 C 3.578125 -3.761719 3.425781 -3.785156 3.222656 -3.828125 C 3.019531 -3.871094 2.863281 -3.894531 2.761719 -3.894531 C 2.480469 -3.890625 2.214844 -3.824219 1.964844 -3.691406 C 1.703125 -3.558594 1.574219 -3.410156 1.574219 -3.253906 C 1.574219 -3.171875 1.613281 -3.101562 1.691406 -3.046875 C 1.769531 -2.996094 1.890625 -2.957031 2.046875 -2.9375 C 2.324219 -2.921875 2.601562 -2.90625 2.878906 -2.890625 C 3.359375 -2.855469 3.742188 -2.71875 4.019531 -2.484375 C 4.328125 -2.222656 4.484375 -1.863281 4.484375 -1.402344 C 4.484375 -0.84375 4.164062 -0.417969 3.527344 -0.128906 C 3.039062 0.0898438 2.484375 0.199219 1.859375 0.199219 Z "/>
</g>
<g id="glyph-0-1">
<path d="M 3.140625 0.214844 C 3.042969 0.214844 2.882812 0.105469 2.667969 -0.109375 C 2.46875 -0.015625 2.289062 0.0585938 2.140625 0.105469 C 1.988281 0.15625 1.859375 0.179688 1.75 0.179688 C 1.226562 0.179688 0.835938 0.0390625 0.574219 -0.242188 C 0.3125 -0.519531 0.183594 -0.941406 0.183594 -1.496094 C 0.183594 -2.019531 0.375 -2.46875 0.761719 -2.839844 C 1.148438 -3.210938 1.609375 -3.398438 2.148438 -3.398438 C 2.355469 -3.398438 2.59375 -3.339844 2.863281 -3.222656 C 3.191406 -3.082031 3.355469 -2.917969 3.355469 -2.730469 C 3.355469 -2.652344 3.332031 -2.585938 3.28125 -2.527344 C 3.257812 -2.441406 3.242188 -2.332031 3.230469 -2.199219 C 3.21875 -2.066406 3.214844 -1.914062 3.214844 -1.738281 C 3.214844 -1.324219 3.242188 -1.027344 3.300781 -0.84375 C 3.308594 -0.824219 3.355469 -0.710938 3.449219 -0.503906 C 3.535156 -0.316406 3.578125 -0.210938 3.578125 -0.1875 C 3.578125 -0.0703125 3.535156 0.0234375 3.445312 0.101562 C 3.359375 0.175781 3.257812 0.214844 3.140625 0.214844 Z M 2.335938 -2.019531 C 2.335938 -2.089844 2.339844 -2.167969 2.347656 -2.257812 C 2.359375 -2.347656 2.375 -2.449219 2.394531 -2.558594 C 2.351562 -2.582031 2.3125 -2.597656 2.277344 -2.605469 C 2.242188 -2.617188 2.214844 -2.621094 2.191406 -2.621094 C 1.894531 -2.621094 1.636719 -2.503906 1.417969 -2.273438 C 1.195312 -2.042969 1.085938 -1.773438 1.085938 -1.472656 C 1.085938 -1.179688 1.136719 -0.960938 1.242188 -0.816406 C 1.34375 -0.667969 1.5 -0.597656 1.710938 -0.597656 C 1.84375 -0.597656 1.972656 -0.617188 2.089844 -0.664062 C 2.210938 -0.707031 2.324219 -0.773438 2.433594 -0.859375 C 2.367188 -1.375 2.335938 -1.761719 2.335938 -2.019531 Z "/>
</g>
<g id="glyph-0-2">
<path d="M 2.628906 -2.621094 C 2.585938 -2.621094 2.53125 -2.621094 2.46875 -2.625 C 2.40625 -2.628906 2.355469 -2.628906 2.308594 -2.628906 C 2.21875 -2.628906 2.117188 -2.621094 2 -2.605469 C 2.039062 -1.726562 2.058594 -1.15625 2.058594 -0.886719 C 2.058594 -0.859375 2.058594 -0.804688 2.0625 -0.726562 C 2.0625 -0.648438 2.0625 -0.589844 2.0625 -0.539062 C 2.0625 -0.0390625 1.90625 0.207031 1.59375 0.207031 C 1.472656 0.207031 1.371094 0.171875 1.28125 0.0976562 C 1.1875 0.0195312 1.140625 -0.078125 1.140625 -0.195312 C 1.140625 -0.273438 1.144531 -0.390625 1.148438 -0.546875 C 1.15625 -0.703125 1.160156 -0.820312 1.160156 -0.898438 C 1.160156 -1.160156 1.140625 -1.722656 1.101562 -2.585938 C 0.964844 -2.589844 0.761719 -2.609375 0.488281 -2.636719 C 0.21875 -2.667969 0.0820312 -2.808594 0.0820312 -3.058594 C 0.0820312 -3.179688 0.121094 -3.285156 0.207031 -3.371094 C 0.289062 -3.453125 0.394531 -3.496094 0.523438 -3.496094 C 0.605469 -3.496094 0.789062 -3.484375 1.078125 -3.457031 C 1.074219 -3.527344 1.070312 -3.640625 1.0625 -3.800781 C 1.054688 -3.941406 1.046875 -4.046875 1.046875 -4.125 C 1.046875 -4.246094 1.09375 -4.347656 1.183594 -4.425781 C 1.269531 -4.507812 1.378906 -4.546875 1.503906 -4.546875 C 1.824219 -4.546875 1.984375 -4.277344 1.984375 -3.738281 L 1.980469 -3.46875 C 2.113281 -3.488281 2.222656 -3.5 2.308594 -3.5 C 2.558594 -3.5 2.726562 -3.484375 2.820312 -3.449219 C 2.992188 -3.390625 3.078125 -3.257812 3.078125 -3.054688 C 3.078125 -2.929688 3.039062 -2.828125 2.953125 -2.746094 C 2.867188 -2.664062 2.761719 -2.621094 2.628906 -2.621094 Z "/>
</g>
<g id="glyph-0-3">
<path d="M 3.183594 -1.882812 C 3.183594 -1.738281 3.183594 -1.515625 3.1875 -1.222656 C 3.1875 -0.929688 3.191406 -0.710938 3.191406 -0.566406 C 3.191406 -0.519531 3.195312 -0.453125 3.203125 -0.363281 C 3.210938 -0.273438 3.214844 -0.207031 3.214844 -0.160156 C 3.214844 -0.0390625 3.167969 0.0625 3.082031 0.140625 C 2.992188 0.21875 2.886719 0.261719 2.757812 0.261719 C 2.578125 0.261719 2.445312 0.179688 2.363281 0.015625 C 2.085938 0.117188 1.796875 0.167969 1.5 0.167969 C 1.191406 0.167969 0.933594 0.105469 0.722656 -0.0273438 C 0.484375 -0.175781 0.34375 -0.394531 0.300781 -0.679688 C 0.214844 -1.222656 0.171875 -1.707031 0.171875 -2.136719 C 0.171875 -2.417969 0.207031 -2.738281 0.269531 -3.101562 C 0.3125 -3.347656 0.460938 -3.46875 0.710938 -3.46875 C 0.835938 -3.46875 0.941406 -3.429688 1.03125 -3.351562 C 1.121094 -3.273438 1.164062 -3.171875 1.164062 -3.050781 C 1.164062 -2.953125 1.148438 -2.804688 1.117188 -2.601562 C 1.085938 -2.398438 1.070312 -2.242188 1.070312 -2.136719 C 1.070312 -1.828125 1.082031 -1.5625 1.101562 -1.332031 C 1.121094 -1.105469 1.152344 -0.914062 1.195312 -0.765625 C 1.25 -0.742188 1.300781 -0.722656 1.351562 -0.710938 C 1.402344 -0.695312 1.453125 -0.691406 1.5 -0.691406 C 1.742188 -0.691406 2.007812 -0.726562 2.296875 -0.792969 C 2.296875 -0.960938 2.292969 -1.152344 2.292969 -1.363281 C 2.289062 -1.617188 2.285156 -1.800781 2.285156 -1.910156 C 2.285156 -2.355469 2.304688 -2.738281 2.347656 -3.0625 C 2.378906 -3.320312 2.527344 -3.449219 2.789062 -3.449219 C 2.917969 -3.449219 3.027344 -3.410156 3.117188 -3.332031 C 3.210938 -3.25 3.253906 -3.148438 3.246094 -3.027344 C 3.203125 -2.199219 3.183594 -1.820312 3.183594 -1.882812 Z "/>
</g>
<g id="glyph-0-4">
<path d="M 3.058594 -2.347656 C 3.039062 -2.015625 2.890625 -1.847656 2.609375 -1.847656 C 2.335938 -1.847656 2.199219 -1.988281 2.199219 -2.273438 L 2.179688 -2.601562 C 1.691406 -2.523438 1.34375 -2.273438 1.132812 -1.847656 L 1.136719 -0.210938 C 1.136719 -0.0859375 1.09375 0.015625 1.007812 0.0976562 C 0.925781 0.179688 0.816406 0.21875 0.6875 0.21875 C 0.550781 0.21875 0.449219 0.175781 0.375 0.0898438 C 0.304688 0.0117188 0.269531 -0.0898438 0.269531 -0.210938 L 0.269531 -2.34375 C 0.269531 -2.410156 0.273438 -2.511719 0.277344 -2.644531 C 0.28125 -2.777344 0.285156 -2.878906 0.285156 -2.945312 C 0.285156 -3.066406 0.320312 -3.167969 0.390625 -3.25 C 0.464844 -3.332031 0.570312 -3.371094 0.703125 -3.371094 C 0.945312 -3.371094 1.085938 -3.25 1.132812 -3 C 1.515625 -3.289062 1.945312 -3.429688 2.414062 -3.429688 C 2.847656 -3.429688 3.0625 -3.140625 3.0625 -2.566406 C 3.0625 -2.453125 3.0625 -2.382812 3.058594 -2.347656 Z "/>
</g>
<g id="glyph-0-5">
<path d="M 2.714844 -3.273438 C 2.742188 -4.011719 2.777344 -4.523438 2.816406 -4.804688 C 2.851562 -5.0625 2.992188 -5.1875 3.238281 -5.1875 C 3.367188 -5.1875 3.46875 -5.148438 3.546875 -5.066406 C 3.625 -4.984375 3.664062 -4.882812 3.664062 -4.761719 C 3.664062 -4.449219 3.640625 -3.980469 3.59375 -3.355469 C 3.542969 -2.734375 3.519531 -2.265625 3.519531 -1.949219 C 3.519531 -1.179688 3.542969 -0.667969 3.59375 -0.40625 C 3.601562 -0.371094 3.605469 -0.339844 3.605469 -0.3125 C 3.605469 -0.191406 3.558594 -0.09375 3.472656 -0.0195312 C 3.386719 0.0585938 3.285156 0.0976562 3.171875 0.0976562 C 3.011719 0.0976562 2.890625 0.0273438 2.8125 -0.117188 C 2.664062 -0.0273438 2.511719 0.0390625 2.355469 0.0820312 C 2.195312 0.128906 2.03125 0.148438 1.863281 0.148438 C 1.375 0.148438 0.972656 -0.00390625 0.652344 -0.316406 C 0.324219 -0.632812 0.160156 -1.035156 0.160156 -1.527344 C 0.160156 -2.109375 0.324219 -2.582031 0.65625 -2.941406 C 0.984375 -3.300781 1.414062 -3.480469 1.945312 -3.480469 C 2.109375 -3.480469 2.253906 -3.460938 2.382812 -3.429688 C 2.511719 -3.394531 2.621094 -3.339844 2.714844 -3.273438 Z M 2.648438 -2.246094 C 2.578125 -2.382812 2.484375 -2.484375 2.371094 -2.550781 C 2.253906 -2.617188 2.117188 -2.652344 1.960938 -2.652344 C 1.640625 -2.652344 1.398438 -2.558594 1.238281 -2.375 C 1.078125 -2.1875 0.996094 -1.910156 0.996094 -1.539062 C 0.996094 -1.304688 1.082031 -1.105469 1.257812 -0.9375 C 1.429688 -0.769531 1.632812 -0.6875 1.863281 -0.6875 C 2.03125 -0.6875 2.15625 -0.707031 2.242188 -0.746094 C 2.300781 -0.773438 2.402344 -0.839844 2.542969 -0.953125 C 2.578125 -0.984375 2.613281 -1.019531 2.648438 -1.054688 C 2.644531 -1.160156 2.644531 -1.554688 2.648438 -2.246094 Z "/>
</g>
<g id="glyph-0-6">
<path d="M 3.566406 -2.75 C 3.332031 -2.257812 2.957031 -1.484375 2.445312 -0.429688 C 2.167969 0.136719 1.957031 0.605469 1.808594 0.980469 C 1.765625 1.113281 1.691406 1.3125 1.59375 1.578125 C 1.515625 1.78125 1.378906 1.886719 1.179688 1.886719 C 1.054688 1.886719 0.945312 1.84375 0.851562 1.765625 C 0.757812 1.683594 0.714844 1.582031 0.714844 1.460938 C 0.714844 1.257812 0.941406 0.660156 1.402344 -0.332031 C 1.164062 -0.804688 0.785156 -1.496094 0.265625 -2.414062 C 0.214844 -2.496094 0.160156 -2.578125 0.109375 -2.664062 C 0.0507812 -2.761719 0.0195312 -2.855469 0.0195312 -2.9375 C 0.0195312 -3.054688 0.0664062 -3.15625 0.160156 -3.246094 C 0.253906 -3.335938 0.359375 -3.378906 0.480469 -3.378906 C 0.625 -3.378906 0.738281 -3.324219 0.816406 -3.21875 C 1.125 -2.808594 1.484375 -2.191406 1.894531 -1.367188 C 2.125 -1.882812 2.269531 -2.191406 2.316406 -2.296875 C 2.472656 -2.621094 2.621094 -2.90625 2.769531 -3.152344 C 2.863281 -3.308594 2.992188 -3.386719 3.15625 -3.386719 C 3.277344 -3.386719 3.382812 -3.34375 3.480469 -3.261719 C 3.574219 -3.179688 3.625 -3.078125 3.625 -2.960938 C 3.625 -2.898438 3.605469 -2.828125 3.566406 -2.75 Z "/>
</g>
</g>
</defs>
<g fill="rgb(38.039216%, 82.352941%, 38.431373%)" fill-opacity="1">
<use xlink:href="#glyph-0-0" x="30" y="27.347656"/>
<use xlink:href="#glyph-0-1" x="35" y="27.347656"/>
<use xlink:href="#glyph-0-2" x="39" y="27.347656"/>
<use xlink:href="#glyph-0-3" x="42" y="27.347656"/>
<use xlink:href="#glyph-0-4" x="45" y="27.347656"/>
<use xlink:href="#glyph-0-5" x="48" y="27.347656"/>
<use xlink:href="#glyph-0-1" x="52" y="27.347656"/>
<use xlink:href="#glyph-0-6" x="56" y="27.347656"/>
</g>
</svg>
