<?xml version="1.0" encoding="UTF-8"?>
<svg xmlns="http://www.w3.org/2000/svg" xmlns:xlink="http://www.w3.org/1999/xlink" width="854" height="480" viewBox="0 0 854 480">
<defs>
<g>
<g id="glyph-0-0">
<path d="M 6.390625 -8.339844 C 6.191406 -8.628906 5.921875 -8.84375 5.585938 -8.976562 C 5.253906 -9.113281 4.898438 -9.179688 4.53125 -9.179688 C 4.308594 -9.179688 4.097656 -9.15625 3.890625 -9.105469 C 3.6875 -9.054688 3.503906 -8.976562 3.335938 -8.863281 C 3.171875 -8.753906 3.039062 -8.613281 2.941406 -8.4375 C 2.839844 -8.261719 2.789062 -8.054688 2.789062 -7.816406 C 2.789062 -7.457031 2.914062 -7.179688 3.164062 -6.988281 C 3.414062 -6.800781 3.726562 -6.636719 4.09375 -6.496094 C 4.464844 -6.355469 4.871094 -6.21875 5.308594 -6.089844 C 5.75 -5.960938 6.15625 -5.78125 6.523438 -5.550781 C 6.894531 -5.320312 7.203125 -5.015625 7.453125 -4.636719 C 7.703125 -4.253906 7.828125 -3.75 7.828125 -3.121094 C 7.828125 -2.550781 7.726562 -2.050781 7.515625 -1.628906 C 7.304688 -1.203125 7.023438 -0.851562 6.667969 -0.570312 C 6.3125 -0.289062 5.898438 -0.078125 5.429688 0.0585938 C 4.960938 0.199219 4.464844 0.269531 3.945312 0.269531 C 3.285156 0.269531 2.648438 0.160156 2.039062 -0.0585938 C 1.429688 -0.28125 0.90625 -0.648438 0.464844 -1.171875 L 1.890625 -2.550781 C 2.121094 -2.199219 2.421875 -1.925781 2.796875 -1.734375 C 3.171875 -1.539062 3.570312 -1.441406 3.988281 -1.441406 C 4.210938 -1.441406 4.429688 -1.46875 4.648438 -1.53125 C 4.871094 -1.589844 5.070312 -1.679688 5.25 -1.800781 C 5.429688 -1.921875 5.574219 -2.074219 5.683594 -2.257812 C 5.792969 -2.441406 5.851562 -2.65625 5.851562 -2.894531 C 5.851562 -3.285156 5.726562 -3.585938 5.476562 -3.796875 C 5.226562 -4.003906 4.914062 -4.183594 4.546875 -4.328125 C 4.175781 -4.472656 3.769531 -4.609375 3.328125 -4.738281 C 2.890625 -4.871094 2.484375 -5.046875 2.113281 -5.273438 C 1.746094 -5.496094 1.433594 -5.796875 1.183594 -6.171875 C 0.933594 -6.546875 0.808594 -7.050781 0.808594 -7.679688 C 0.808594 -8.230469 0.921875 -8.703125 1.148438 -9.105469 C 1.371094 -9.503906 1.667969 -9.835938 2.03125 -10.101562 C 2.398438 -10.367188 2.816406 -10.566406 3.285156 -10.695312 C 3.753906 -10.824219 4.234375 -10.890625 4.726562 -10.890625 C 5.285156 -10.890625 5.828125 -10.804688 6.351562 -10.636719 C 6.878906 -10.464844 7.351562 -10.183594 7.769531 -9.796875 Z "/>
</g>
<g id="glyph-0-1">
<path d="M 0.179688 -5.671875 L 0.179688 -7.199219 L 1.664062 -7.199219 L 1.664062 -9.285156 L 3.464844 -9.285156 L 3.464844 -7.199219 L 5.445312 -7.199219 L 5.445312 -5.671875 L 3.464844 -5.671875 L 3.464844 -2.519531 C 3.464844 -2.160156 3.53125 -1.875 3.667969 -1.664062 C 3.800781 -1.453125 4.070312 -1.351562 4.46875 -1.351562 C 4.628906 -1.351562 4.804688 -1.367188 4.996094 -1.402344 C 5.183594 -1.4375 5.335938 -1.496094 5.445312 -1.574219 L 5.445312 -0.0585938 C 5.253906 0.03125 5.023438 0.09375 4.746094 0.128906 C 4.472656 0.164062 4.230469 0.179688 4.019531 0.179688 C 3.539062 0.179688 3.148438 0.128906 2.84375 0.0234375 C 2.539062 -0.0820312 2.296875 -0.242188 2.121094 -0.457031 C 1.945312 -0.671875 1.828125 -0.941406 1.761719 -1.261719 C 1.695312 -1.582031 1.664062 -1.949219 1.664062 -2.371094 L 1.664062 -5.671875 Z "/>
</g>
<g id="glyph-0-2">
<path d="M 5.519531 -0.988281 L 5.476562 -0.988281 C 5.214844 -0.578125 4.886719 -0.28125 4.484375 -0.0976562 C 4.085938 0.0859375 3.644531 0.179688 3.164062 0.179688 C 2.835938 0.179688 2.511719 0.136719 2.199219 0.046875 C 1.882812 -0.0429688 1.601562 -0.179688 1.359375 -0.359375 C 1.113281 -0.539062 0.914062 -0.765625 0.765625 -1.035156 C 0.613281 -1.304688 0.539062 -1.621094 0.539062 -1.980469 C 0.539062 -2.371094 0.609375 -2.703125 0.75 -2.976562 C 0.890625 -3.253906 1.078125 -3.484375 1.3125 -3.667969 C 1.546875 -3.851562 1.820312 -4 2.128906 -4.109375 C 2.441406 -4.21875 2.761719 -4.300781 3.097656 -4.359375 C 3.433594 -4.414062 3.769531 -4.449219 4.109375 -4.460938 C 4.449219 -4.476562 4.769531 -4.484375 5.070312 -4.484375 L 5.519531 -4.484375 L 5.519531 -4.679688 C 5.519531 -5.128906 5.363281 -5.46875 5.054688 -5.691406 C 4.746094 -5.917969 4.351562 -6.03125 3.871094 -6.03125 C 3.492188 -6.03125 3.136719 -5.960938 2.804688 -5.828125 C 2.476562 -5.691406 2.191406 -5.511719 1.949219 -5.28125 L 1.003906 -6.226562 C 1.40625 -6.636719 1.871094 -6.929688 2.40625 -7.109375 C 2.941406 -7.289062 3.496094 -7.378906 4.066406 -7.378906 C 4.574219 -7.378906 5.003906 -7.324219 5.355469 -7.207031 C 5.707031 -7.09375 5.996094 -6.945312 6.226562 -6.765625 C 6.457031 -6.585938 6.632812 -6.378906 6.757812 -6.140625 C 6.882812 -5.90625 6.972656 -5.671875 7.027344 -5.429688 C 7.082031 -5.191406 7.113281 -4.957031 7.125 -4.734375 C 7.136719 -4.507812 7.140625 -4.308594 7.140625 -4.140625 L 7.140625 0 L 5.519531 0 Z M 5.414062 -3.226562 L 5.039062 -3.226562 C 4.789062 -3.226562 4.511719 -3.214844 4.199219 -3.195312 C 3.890625 -3.175781 3.597656 -3.128906 3.324219 -3.050781 C 3.046875 -2.976562 2.816406 -2.867188 2.625 -2.722656 C 2.433594 -2.578125 2.339844 -2.375 2.339844 -2.113281 C 2.339844 -1.945312 2.378906 -1.800781 2.453125 -1.6875 C 2.527344 -1.574219 2.625 -1.476562 2.746094 -1.394531 C 2.867188 -1.316406 3 -1.257812 3.148438 -1.222656 C 3.300781 -1.1875 3.449219 -1.171875 3.601562 -1.171875 C 4.21875 -1.171875 4.675781 -1.316406 4.972656 -1.613281 C 5.265625 -1.90625 5.414062 -2.308594 5.414062 -2.820312 Z "/>
</g>
<g id="glyph-0-3">
<path d="M 1.019531 -11.339844 L 2.820312 -11.339844 L 2.820312 -6.285156 L 2.863281 -6.285156 C 2.953125 -6.40625 3.070312 -6.527344 3.210938 -6.652344 C 3.351562 -6.777344 3.519531 -6.894531 3.71875 -7.003906 C 3.917969 -7.113281 4.148438 -7.203125 4.410156 -7.273438 C 4.671875 -7.34375 4.96875 -7.378906 5.308594 -7.378906 C 5.820312 -7.378906 6.289062 -7.28125 6.71875 -7.085938 C 7.148438 -6.890625 7.515625 -6.625 7.824219 -6.285156 C 8.128906 -5.945312 8.363281 -5.546875 8.535156 -5.085938 C 8.703125 -4.625 8.789062 -4.128906 8.789062 -3.601562 C 8.789062 -3.070312 8.710938 -2.574219 8.550781 -2.113281 C 8.390625 -1.65625 8.15625 -1.253906 7.84375 -0.914062 C 7.535156 -0.574219 7.160156 -0.308594 6.71875 -0.113281 C 6.28125 0.0820312 5.785156 0.179688 5.234375 0.179688 C 4.726562 0.179688 4.25 0.078125 3.808594 -0.121094 C 3.371094 -0.320312 3.019531 -0.640625 2.761719 -1.078125 L 2.730469 -1.078125 L 2.730469 0 L 1.019531 0 Z M 6.988281 -3.601562 C 6.988281 -3.878906 6.941406 -4.148438 6.847656 -4.410156 C 6.753906 -4.671875 6.613281 -4.898438 6.425781 -5.101562 C 6.242188 -5.300781 6.019531 -5.460938 5.761719 -5.578125 C 5.5 -5.699219 5.203125 -5.761719 4.875 -5.761719 C 4.546875 -5.761719 4.25 -5.699219 3.988281 -5.578125 C 3.730469 -5.460938 3.507812 -5.300781 3.324219 -5.101562 C 3.136719 -4.902344 2.996094 -4.671875 2.902344 -4.410156 C 2.808594 -4.148438 2.761719 -3.878906 2.761719 -3.601562 C 2.761719 -3.320312 2.808594 -3.050781 2.902344 -2.789062 C 2.996094 -2.53125 3.136719 -2.300781 3.324219 -2.101562 C 3.507812 -1.902344 3.730469 -1.738281 3.988281 -1.621094 C 4.25 -1.5 4.546875 -1.441406 4.875 -1.441406 C 5.203125 -1.441406 5.5 -1.5 5.761719 -1.621094 C 6.019531 -1.742188 6.242188 -1.898438 6.425781 -2.101562 C 6.613281 -2.300781 6.753906 -2.53125 6.847656 -2.789062 C 6.941406 -3.050781 6.988281 -3.320312 6.988281 -3.601562 Z "/>
</g>
<g id="glyph-0-4">
<path d="M 1.050781 -11.339844 L 2.851562 -11.339844 L 2.851562 0 L 1.050781 0 Z "/>
</g>
<g id="glyph-0-5">
<path d="M 2.460938 -2.96875 C 2.519531 -2.429688 2.730469 -2.011719 3.089844 -1.710938 C 3.449219 -1.410156 3.886719 -1.261719 4.394531 -1.261719 C 4.84375 -1.261719 5.222656 -1.351562 5.527344 -1.539062 C 5.832031 -1.722656 6.101562 -1.953125 6.328125 -2.234375 L 7.621094 -1.261719 C 7.199219 -0.742188 6.730469 -0.371094 6.210938 -0.148438 C 5.691406 0.0703125 5.144531 0.179688 4.574219 0.179688 C 4.035156 0.179688 3.523438 0.0898438 3.046875 -0.0898438 C 2.566406 -0.269531 2.148438 -0.523438 1.800781 -0.855469 C 1.449219 -1.183594 1.171875 -1.582031 0.96875 -2.046875 C 0.761719 -2.511719 0.660156 -3.03125 0.660156 -3.601562 C 0.660156 -4.171875 0.761719 -4.6875 0.96875 -5.152344 C 1.171875 -5.617188 1.449219 -6.015625 1.800781 -6.34375 C 2.148438 -6.675781 2.566406 -6.929688 3.046875 -7.109375 C 3.527344 -7.289062 4.035156 -7.378906 4.574219 -7.378906 C 5.074219 -7.378906 5.53125 -7.292969 5.949219 -7.117188 C 6.363281 -6.941406 6.71875 -6.691406 7.011719 -6.359375 C 7.308594 -6.03125 7.539062 -5.621094 7.703125 -5.136719 C 7.867188 -4.652344 7.949219 -4.09375 7.949219 -3.464844 L 7.949219 -2.96875 Z M 6.148438 -4.320312 C 6.140625 -4.851562 5.976562 -5.265625 5.65625 -5.574219 C 5.335938 -5.878906 4.890625 -6.03125 4.320312 -6.03125 C 3.78125 -6.03125 3.351562 -5.875 3.039062 -5.566406 C 2.722656 -5.253906 2.53125 -4.839844 2.460938 -4.320312 Z "/>
</g>
</g>
</defs>
<g fill="rgb(3.137255%, 28.627451%, 57.647059%)" fill-opacity="1">
<use xlink:href="#glyph-0-0" x="30" y="35"/>
<use xlink:href="#glyph-0-1" x="39" y="35"/>
<use xlink:href="#glyph-0-2" x="45" y="35"/>
<use xlink:href="#glyph-0-3" x="53" y="35"/>
<use xlink:href="#glyph-0-4" x="62" y="35"/>
<use xlink:href="#glyph-0-5" x="66" y="35"/>
</g>
</svg>
