<?xml version="1.0" encoding="UTF-8"?>
<svg xmlns="http://www.w3.org/2000/svg" xmlns:xlink="http://www.w3.org/1999/xlink" width="854" height="480" viewBox="0 0 854 480">
<defs>
<g>
<g id="glyph-0-0">
<path d="M 1.507812 -4.519531 L 1.507812 -2.632812 L 2.558594 -2.632812 C 2.832031 -2.632812 3.015625 -2.671875 3.105469 -2.753906 C 3.230469 -2.863281 3.296875 -3.054688 3.3125 -3.324219 L 3.441406 -3.324219 L 3.441406 -1.660156 L 3.3125 -1.660156 C 3.277344 -1.894531 3.246094 -2.042969 3.210938 -2.109375 C 3.167969 -2.191406 3.101562 -2.257812 3.003906 -2.304688 C 2.90625 -2.351562 2.761719 -2.375 2.558594 -2.375 L 1.507812 -2.375 L 1.507812 -0.796875 C 1.507812 -0.585938 1.519531 -0.457031 1.539062 -0.410156 C 1.558594 -0.363281 1.589844 -0.328125 1.636719 -0.300781 C 1.683594 -0.273438 1.773438 -0.261719 1.90625 -0.261719 L 2.714844 -0.261719 C 2.984375 -0.261719 3.183594 -0.28125 3.304688 -0.316406 C 3.425781 -0.355469 3.542969 -0.429688 3.65625 -0.539062 C 3.800781 -0.683594 3.953125 -0.90625 4.105469 -1.199219 L 4.246094 -1.199219 L 3.832031 0 L 0.148438 0 L 0.148438 -0.128906 L 0.316406 -0.128906 C 0.429688 -0.128906 0.539062 -0.15625 0.636719 -0.210938 C 0.714844 -0.25 0.765625 -0.304688 0.792969 -0.382812 C 0.820312 -0.457031 0.832031 -0.609375 0.832031 -0.84375 L 0.832031 -3.949219 C 0.832031 -4.253906 0.800781 -4.441406 0.742188 -4.511719 C 0.65625 -4.605469 0.515625 -4.652344 0.316406 -4.652344 L 0.148438 -4.652344 L 0.148438 -4.78125 L 3.832031 -4.78125 L 3.886719 -3.734375 L 3.75 -3.734375 C 3.699219 -3.984375 3.644531 -4.160156 3.585938 -4.253906 C 3.523438 -4.347656 3.4375 -4.417969 3.320312 -4.46875 C 3.226562 -4.503906 3.058594 -4.519531 2.820312 -4.519531 Z "/>
</g>
<g id="glyph-0-1">
<path d="M 1.167969 -2.640625 C 1.546875 -3.097656 1.90625 -3.324219 2.25 -3.324219 C 2.425781 -3.324219 2.578125 -3.28125 2.703125 -3.195312 C 2.832031 -3.105469 2.933594 -2.960938 3.007812 -2.757812 C 3.058594 -2.617188 3.085938 -2.402344 3.085938 -2.109375 L 3.085938 -0.730469 C 3.085938 -0.527344 3.101562 -0.386719 3.136719 -0.3125 C 3.160156 -0.253906 3.203125 -0.210938 3.261719 -0.175781 C 3.320312 -0.144531 3.425781 -0.128906 3.578125 -0.128906 L 3.578125 0 L 1.980469 0 L 1.980469 -0.128906 L 2.050781 -0.128906 C 2.199219 -0.128906 2.304688 -0.148438 2.363281 -0.195312 C 2.425781 -0.242188 2.464844 -0.308594 2.488281 -0.398438 C 2.5 -0.433594 2.503906 -0.542969 2.503906 -0.730469 L 2.503906 -2.050781 C 2.503906 -2.347656 2.464844 -2.558594 2.390625 -2.691406 C 2.3125 -2.824219 2.183594 -2.890625 2.003906 -2.890625 C 1.722656 -2.890625 1.445312 -2.738281 1.167969 -2.433594 L 1.167969 -0.730469 C 1.167969 -0.511719 1.179688 -0.375 1.207031 -0.324219 C 1.238281 -0.257812 1.285156 -0.207031 1.34375 -0.175781 C 1.398438 -0.144531 1.515625 -0.128906 1.691406 -0.128906 L 1.691406 0 L 0.09375 0 L 0.09375 -0.128906 L 0.164062 -0.128906 C 0.328125 -0.128906 0.441406 -0.167969 0.5 -0.253906 C 0.558594 -0.335938 0.585938 -0.496094 0.585938 -0.730469 L 0.585938 -1.929688 C 0.585938 -2.316406 0.578125 -2.554688 0.558594 -2.636719 C 0.542969 -2.722656 0.515625 -2.78125 0.476562 -2.8125 C 0.441406 -2.84375 0.394531 -2.855469 0.332031 -2.855469 C 0.265625 -2.855469 0.1875 -2.839844 0.09375 -2.804688 L 0.0429688 -2.929688 L 1.015625 -3.324219 L 1.167969 -3.324219 Z "/>
</g>
<g id="glyph-0-2">
<path d="M 1.164062 -4.292969 L 1.164062 -3.230469 L 1.917969 -3.230469 L 1.917969 -2.984375 L 1.164062 -2.984375 L 1.164062 -0.890625 C 1.164062 -0.679688 1.195312 -0.539062 1.253906 -0.464844 C 1.3125 -0.390625 1.390625 -0.355469 1.484375 -0.355469 C 1.5625 -0.355469 1.636719 -0.378906 1.710938 -0.429688 C 1.785156 -0.476562 1.839844 -0.546875 1.878906 -0.640625 L 2.015625 -0.640625 C 1.933594 -0.410156 1.820312 -0.238281 1.667969 -0.121094 C 1.519531 -0.00390625 1.363281 0.0546875 1.203125 0.0546875 C 1.09375 0.0546875 0.988281 0.0234375 0.886719 -0.0351562 C 0.78125 -0.0976562 0.707031 -0.183594 0.65625 -0.292969 C 0.605469 -0.40625 0.582031 -0.578125 0.582031 -0.8125 L 0.582031 -2.984375 L 0.0703125 -2.984375 L 0.0703125 -3.101562 C 0.199219 -3.152344 0.332031 -3.238281 0.46875 -3.363281 C 0.601562 -3.484375 0.722656 -3.632812 0.828125 -3.800781 C 0.882812 -3.890625 0.957031 -4.054688 1.054688 -4.292969 Z "/>
</g>
<g id="glyph-0-3">
<path d="M 1.171875 -3.324219 L 1.171875 -2.597656 C 1.441406 -3.082031 1.71875 -3.324219 2.003906 -3.324219 C 2.132812 -3.324219 2.238281 -3.285156 2.324219 -3.207031 C 2.410156 -3.128906 2.449219 -3.039062 2.449219 -2.933594 C 2.449219 -2.84375 2.421875 -2.765625 2.359375 -2.703125 C 2.296875 -2.636719 2.226562 -2.605469 2.140625 -2.605469 C 2.058594 -2.605469 1.964844 -2.648438 1.863281 -2.726562 C 1.761719 -2.808594 1.6875 -2.847656 1.636719 -2.847656 C 1.59375 -2.847656 1.546875 -2.824219 1.5 -2.777344 C 1.394531 -2.683594 1.285156 -2.523438 1.171875 -2.304688 L 1.171875 -0.753906 C 1.171875 -0.574219 1.191406 -0.441406 1.238281 -0.347656 C 1.269531 -0.285156 1.324219 -0.234375 1.398438 -0.191406 C 1.476562 -0.148438 1.589844 -0.128906 1.734375 -0.128906 L 1.734375 0 L 0.0820312 0 L 0.0820312 -0.128906 C 0.246094 -0.128906 0.367188 -0.152344 0.449219 -0.203125 C 0.507812 -0.242188 0.546875 -0.300781 0.570312 -0.382812 C 0.582031 -0.425781 0.589844 -0.539062 0.589844 -0.726562 L 0.589844 -1.976562 C 0.589844 -2.355469 0.582031 -2.578125 0.566406 -2.648438 C 0.550781 -2.722656 0.523438 -2.773438 0.480469 -2.808594 C 0.441406 -2.839844 0.390625 -2.855469 0.328125 -2.855469 C 0.253906 -2.855469 0.171875 -2.839844 0.0820312 -2.804688 L 0.046875 -2.929688 L 1.023438 -3.324219 Z "/>
</g>
<g id="glyph-0-4">
<path d="M 0.0429688 -3.230469 L 1.546875 -3.230469 L 1.546875 -3.101562 L 1.472656 -3.101562 C 1.367188 -3.101562 1.289062 -3.078125 1.234375 -3.03125 C 1.183594 -2.984375 1.15625 -2.929688 1.15625 -2.859375 C 1.15625 -2.769531 1.195312 -2.640625 1.273438 -2.480469 L 2.058594 -0.851562 L 2.78125 -2.632812 C 2.820312 -2.730469 2.84375 -2.824219 2.84375 -2.921875 C 2.84375 -2.964844 2.835938 -2.996094 2.816406 -3.015625 C 2.796875 -3.042969 2.769531 -3.0625 2.730469 -3.078125 C 2.691406 -3.09375 2.621094 -3.101562 2.519531 -3.101562 L 2.519531 -3.230469 L 3.570312 -3.230469 L 3.570312 -3.101562 C 3.484375 -3.089844 3.414062 -3.070312 3.367188 -3.042969 C 3.320312 -3.015625 3.269531 -2.960938 3.210938 -2.886719 C 3.191406 -2.851562 3.152344 -2.761719 3.09375 -2.613281 L 1.777344 0.609375 C 1.652344 0.921875 1.484375 1.160156 1.277344 1.320312 C 1.074219 1.480469 0.875 1.558594 0.683594 1.558594 C 0.546875 1.558594 0.429688 1.519531 0.34375 1.4375 C 0.253906 1.359375 0.207031 1.265625 0.207031 1.164062 C 0.207031 1.066406 0.242188 0.984375 0.304688 0.925781 C 0.371094 0.867188 0.457031 0.835938 0.570312 0.835938 C 0.648438 0.835938 0.753906 0.863281 0.890625 0.914062 C 0.984375 0.949219 1.042969 0.964844 1.066406 0.964844 C 1.136719 0.964844 1.210938 0.929688 1.296875 0.855469 C 1.378906 0.785156 1.464844 0.644531 1.546875 0.433594 L 1.777344 -0.128906 L 0.617188 -2.5625 C 0.582031 -2.636719 0.527344 -2.726562 0.449219 -2.835938 C 0.390625 -2.917969 0.339844 -2.972656 0.304688 -3 C 0.25 -3.039062 0.164062 -3.070312 0.0429688 -3.101562 Z "/>
</g>
<g id="glyph-0-5">
<rect x="0" y="0" width="0" height="0" mask="url(#mask-0)"/>
</g>
<g id="glyph-0-6">
<path d="M 3.304688 -1.601562 L 1.453125 -1.601562 L 1.128906 -0.847656 C 1.046875 -0.660156 1.007812 -0.523438 1.007812 -0.429688 C 1.007812 -0.355469 1.042969 -0.292969 1.113281 -0.238281 C 1.183594 -0.183594 1.332031 -0.148438 1.5625 -0.128906 L 1.5625 0 L 0.0546875 0 L 0.0546875 -0.128906 C 0.253906 -0.164062 0.386719 -0.210938 0.445312 -0.269531 C 0.566406 -0.382812 0.695312 -0.609375 0.84375 -0.957031 L 2.523438 -4.890625 L 2.648438 -4.890625 L 4.3125 -0.914062 C 4.445312 -0.59375 4.570312 -0.386719 4.679688 -0.289062 C 4.789062 -0.195312 4.941406 -0.140625 5.136719 -0.128906 L 5.136719 0 L 3.25 0 L 3.25 -0.128906 C 3.4375 -0.140625 3.566406 -0.171875 3.632812 -0.226562 C 3.699219 -0.28125 3.734375 -0.34375 3.734375 -0.421875 C 3.734375 -0.527344 3.6875 -0.691406 3.59375 -0.914062 Z M 3.207031 -1.863281 L 2.394531 -3.792969 L 1.5625 -1.863281 Z "/>
</g>
<g id="glyph-0-7">
<path d="M 2.3125 -3.324219 L 2.3125 -2.226562 L 2.195312 -2.226562 C 2.105469 -2.570312 1.992188 -2.804688 1.851562 -2.929688 C 1.710938 -3.054688 1.535156 -3.117188 1.320312 -3.117188 C 1.15625 -3.117188 1.023438 -3.074219 0.921875 -2.988281 C 0.820312 -2.902344 0.769531 -2.804688 0.769531 -2.699219 C 0.769531 -2.566406 0.804688 -2.453125 0.882812 -2.359375 C 0.953125 -2.261719 1.101562 -2.160156 1.324219 -2.050781 L 1.839844 -1.800781 C 2.316406 -1.570312 2.558594 -1.261719 2.558594 -0.882812 C 2.558594 -0.589844 2.445312 -0.351562 2.222656 -0.171875 C 2 0.0078125 1.753906 0.0976562 1.476562 0.0976562 C 1.28125 0.0976562 1.054688 0.0625 0.800781 -0.0078125 C 0.722656 -0.03125 0.660156 -0.0429688 0.609375 -0.0429688 C 0.554688 -0.0429688 0.515625 -0.0117188 0.484375 0.0507812 L 0.367188 0.0507812 L 0.367188 -1.105469 L 0.484375 -1.105469 C 0.550781 -0.773438 0.675781 -0.527344 0.859375 -0.359375 C 1.046875 -0.191406 1.253906 -0.109375 1.484375 -0.109375 C 1.648438 -0.109375 1.777344 -0.15625 1.882812 -0.253906 C 1.984375 -0.347656 2.035156 -0.460938 2.035156 -0.597656 C 2.035156 -0.757812 1.976562 -0.894531 1.863281 -1.003906 C 1.75 -1.113281 1.523438 -1.253906 1.179688 -1.425781 C 0.839844 -1.59375 0.617188 -1.746094 0.511719 -1.882812 C 0.40625 -2.015625 0.351562 -2.1875 0.351562 -2.390625 C 0.351562 -2.65625 0.445312 -2.878906 0.625 -3.058594 C 0.808594 -3.238281 1.042969 -3.324219 1.332031 -3.324219 C 1.460938 -3.324219 1.613281 -3.296875 1.796875 -3.246094 C 1.914062 -3.210938 1.996094 -3.191406 2.035156 -3.191406 C 2.074219 -3.191406 2.101562 -3.199219 2.125 -3.214844 C 2.144531 -3.230469 2.167969 -3.269531 2.195312 -3.324219 Z "/>
</g>
<g id="glyph-0-8">
<path d="M 0.769531 -2.015625 C 0.765625 -1.535156 0.882812 -1.15625 1.117188 -0.886719 C 1.351562 -0.613281 1.628906 -0.476562 1.945312 -0.476562 C 2.15625 -0.476562 2.34375 -0.535156 2.5 -0.652344 C 2.65625 -0.769531 2.785156 -0.964844 2.890625 -1.25 L 3 -1.179688 C 2.953125 -0.855469 2.808594 -0.5625 2.570312 -0.296875 C 2.332031 -0.03125 2.035156 0.0976562 1.679688 0.0976562 C 1.292969 0.0976562 0.957031 -0.0507812 0.683594 -0.355469 C 0.40625 -0.65625 0.269531 -1.0625 0.269531 -1.574219 C 0.269531 -2.125 0.410156 -2.554688 0.691406 -2.867188 C 0.976562 -3.175781 1.332031 -3.328125 1.761719 -3.328125 C 2.121094 -3.328125 2.417969 -3.210938 2.652344 -2.972656 C 2.886719 -2.734375 3 -2.414062 3 -2.015625 Z M 0.769531 -2.21875 L 2.265625 -2.21875 C 2.253906 -2.425781 2.226562 -2.570312 2.191406 -2.65625 C 2.132812 -2.789062 2.042969 -2.890625 1.925781 -2.964844 C 1.808594 -3.039062 1.6875 -3.078125 1.5625 -3.078125 C 1.367188 -3.078125 1.191406 -3.003906 1.039062 -2.851562 C 0.882812 -2.699219 0.792969 -2.488281 0.769531 -2.21875 Z "/>
</g>
<g id="glyph-0-9">
<path d="M 1.183594 -2.636719 C 1.417969 -2.871094 1.558594 -3.007812 1.601562 -3.042969 C 1.707031 -3.132812 1.820312 -3.203125 1.941406 -3.25 C 2.066406 -3.300781 2.1875 -3.324219 2.304688 -3.324219 C 2.507812 -3.324219 2.683594 -3.265625 2.828125 -3.148438 C 2.972656 -3.03125 3.070312 -2.859375 3.121094 -2.636719 C 3.363281 -2.917969 3.566406 -3.105469 3.734375 -3.195312 C 3.902344 -3.28125 4.074219 -3.324219 4.25 -3.324219 C 4.421875 -3.324219 4.574219 -3.28125 4.707031 -3.195312 C 4.839844 -3.105469 4.945312 -2.960938 5.023438 -2.761719 C 5.074219 -2.625 5.097656 -2.410156 5.097656 -2.121094 L 5.097656 -0.730469 C 5.097656 -0.527344 5.113281 -0.390625 5.144531 -0.3125 C 5.167969 -0.261719 5.210938 -0.21875 5.277344 -0.179688 C 5.339844 -0.144531 5.441406 -0.128906 5.585938 -0.128906 L 5.585938 0 L 3.992188 0 L 3.992188 -0.128906 L 4.058594 -0.128906 C 4.199219 -0.128906 4.304688 -0.152344 4.382812 -0.207031 C 4.4375 -0.246094 4.476562 -0.304688 4.5 -0.386719 C 4.507812 -0.425781 4.515625 -0.542969 4.515625 -0.730469 L 4.515625 -2.121094 C 4.515625 -2.382812 4.480469 -2.570312 4.417969 -2.675781 C 4.328125 -2.828125 4.179688 -2.902344 3.976562 -2.902344 C 3.851562 -2.902344 3.726562 -2.871094 3.601562 -2.808594 C 3.476562 -2.746094 3.324219 -2.632812 3.144531 -2.460938 L 3.140625 -2.421875 L 3.144531 -2.269531 L 3.144531 -0.730469 C 3.144531 -0.507812 3.15625 -0.371094 3.183594 -0.316406 C 3.207031 -0.261719 3.253906 -0.21875 3.320312 -0.179688 C 3.390625 -0.144531 3.507812 -0.128906 3.671875 -0.128906 L 3.671875 0 L 2.039062 0 L 2.039062 -0.128906 C 2.21875 -0.128906 2.339844 -0.148438 2.40625 -0.191406 C 2.472656 -0.234375 2.519531 -0.296875 2.546875 -0.382812 C 2.558594 -0.421875 2.5625 -0.539062 2.5625 -0.730469 L 2.5625 -2.121094 C 2.5625 -2.382812 2.523438 -2.570312 2.449219 -2.6875 C 2.34375 -2.835938 2.199219 -2.914062 2.015625 -2.914062 C 1.886719 -2.914062 1.761719 -2.878906 1.636719 -2.8125 C 1.441406 -2.707031 1.289062 -2.589844 1.183594 -2.460938 L 1.183594 -0.730469 C 1.183594 -0.519531 1.199219 -0.382812 1.230469 -0.316406 C 1.257812 -0.253906 1.300781 -0.207031 1.359375 -0.175781 C 1.417969 -0.144531 1.535156 -0.128906 1.710938 -0.128906 L 1.710938 0 L 0.113281 0 L 0.113281 -0.128906 C 0.261719 -0.128906 0.363281 -0.144531 0.421875 -0.175781 C 0.480469 -0.207031 0.527344 -0.257812 0.558594 -0.328125 C 0.589844 -0.394531 0.601562 -0.53125 0.601562 -0.730469 L 0.601562 -1.964844 C 0.601562 -2.320312 0.59375 -2.546875 0.570312 -2.652344 C 0.554688 -2.730469 0.527344 -2.78125 0.492188 -2.8125 C 0.457031 -2.84375 0.410156 -2.855469 0.347656 -2.855469 C 0.28125 -2.855469 0.203125 -2.839844 0.113281 -2.804688 L 0.0585938 -2.929688 L 1.035156 -3.324219 L 1.183594 -3.324219 Z "/>
</g>
</g>
<image id="source-48" x="0" y="0" width="0" height="0"/>
<mask id="mask-0">
<use xlink:href="#source-48"/>
</mask>
</defs>
<g fill="rgb(64.705882%, 70.588235%, 98.823529%)" fill-opacity="1">
<use xlink:href="#glyph-0-0" x="30" y="26.436523"/>
<use xlink:href="#glyph-0-1" x="34" y="26.436523"/>
<use xlink:href="#glyph-0-2" x="38" y="26.436523"/>
<use xlink:href="#glyph-0-3" x="40" y="26.436523"/>
<use xlink:href="#glyph-0-4" x="42" y="26.436523"/>
<use xlink:href="#glyph-0-5" x="46" y="26.436523"/>
<use xlink:href="#glyph-0-6" x="48" y="26.436523"/>
<use xlink:href="#glyph-0-7" x="53" y="26.436523"/>
<use xlink:href="#glyph-0-7" x="56" y="26.436523"/>
<use xlink:href="#glyph-0-8" x="59" y="26.436523"/>
<use xlink:href="#glyph-0-7" x="62" y="26.436523"/>
<use xlink:href="#glyph-0-7" x="65" y="26.436523"/>
<use xlink:href="#glyph-0-9" x="68" y="26.436523"/>
<use xlink:href="#glyph-0-8" x="74" y="26.436523"/>
<use xlink:href="#glyph-0-1" x="77" y="26.436523"/>
<use xlink:href="#glyph-0-2" x="81" y="26.436523"/>
</g>
</svg>
