<?xml version="1.0" encoding="UTF-8"?>
<svg xmlns="http://www.w3.org/2000/svg" xmlns:xlink="http://www.w3.org/1999/xlink" width="854" height="480" viewBox="0 0 854 480">
<defs>
<g>
<g id="glyph-0-0">
<path d="M 0.0507812 0 L 0.0507812 -0.0703125 L 0.136719 -0.0703125 C 0.210938 -0.0703125 0.269531 -0.0820312 0.308594 -0.105469 C 0.347656 -0.128906 0.378906 -0.160156 0.398438 -0.203125 C 0.410156 -0.226562 0.414062 -0.308594 0.414062 -0.441406 L 0.414062 -2.132812 C 0.414062 -2.265625 0.40625 -2.347656 0.394531 -2.382812 C 0.378906 -2.414062 0.351562 -2.445312 0.308594 -2.46875 C 0.265625 -2.492188 0.207031 -2.503906 0.136719 -2.503906 L 0.0507812 -2.503906 L 0.0507812 -2.574219 L 1.203125 -2.574219 C 1.511719 -2.574219 1.757812 -2.535156 1.945312 -2.449219 C 2.175781 -2.347656 2.351562 -2.191406 2.46875 -1.984375 C 2.585938 -1.777344 2.644531 -1.542969 2.644531 -1.28125 C 2.644531 -1.097656 2.617188 -0.933594 2.558594 -0.78125 C 2.5 -0.628906 2.425781 -0.5 2.332031 -0.402344 C 2.238281 -0.300781 2.132812 -0.222656 2.011719 -0.164062 C 1.890625 -0.101562 1.742188 -0.0546875 1.570312 -0.0234375 C 1.492188 -0.0078125 1.371094 0 1.203125 0 Z M 1.03125 -2.429688 L 1.03125 -0.417969 C 1.03125 -0.3125 1.039062 -0.25 1.046875 -0.222656 C 1.058594 -0.199219 1.074219 -0.183594 1.101562 -0.167969 C 1.132812 -0.148438 1.183594 -0.140625 1.246094 -0.140625 C 1.457031 -0.140625 1.621094 -0.210938 1.730469 -0.355469 C 1.882812 -0.550781 1.960938 -0.855469 1.960938 -1.265625 C 1.960938 -1.59375 1.90625 -1.859375 1.804688 -2.058594 C 1.722656 -2.210938 1.617188 -2.316406 1.488281 -2.371094 C 1.394531 -2.410156 1.246094 -2.429688 1.03125 -2.429688 Z "/>
</g>
<g id="glyph-0-1">
<path d="M 0.867188 -1.777344 L 0.867188 -1.375 C 0.984375 -1.558594 1.089844 -1.679688 1.175781 -1.738281 C 1.265625 -1.796875 1.351562 -1.828125 1.433594 -1.828125 C 1.503906 -1.828125 1.5625 -1.808594 1.605469 -1.761719 C 1.648438 -1.71875 1.667969 -1.65625 1.667969 -1.578125 C 1.667969 -1.492188 1.648438 -1.425781 1.605469 -1.378906 C 1.566406 -1.332031 1.515625 -1.308594 1.457031 -1.308594 C 1.390625 -1.308594 1.332031 -1.332031 1.28125 -1.375 C 1.230469 -1.417969 1.203125 -1.441406 1.195312 -1.445312 C 1.183594 -1.453125 1.167969 -1.457031 1.152344 -1.457031 C 1.113281 -1.457031 1.078125 -1.445312 1.046875 -1.417969 C 0.996094 -1.375 0.957031 -1.3125 0.929688 -1.234375 C 0.886719 -1.109375 0.867188 -0.972656 0.867188 -0.824219 L 0.867188 -0.417969 L 0.871094 -0.3125 C 0.871094 -0.238281 0.875 -0.191406 0.882812 -0.171875 C 0.898438 -0.136719 0.921875 -0.113281 0.949219 -0.0976562 C 0.980469 -0.0820312 1.03125 -0.0703125 1.101562 -0.0703125 L 1.101562 0 L 0.140625 0 L 0.140625 -0.0703125 C 0.21875 -0.0742188 0.273438 -0.0976562 0.300781 -0.132812 C 0.328125 -0.167969 0.339844 -0.261719 0.339844 -0.417969 L 0.339844 -1.398438 C 0.339844 -1.5 0.335938 -1.566406 0.324219 -1.59375 C 0.3125 -1.628906 0.292969 -1.65625 0.269531 -1.671875 C 0.246094 -1.6875 0.203125 -1.699219 0.140625 -1.707031 L 0.140625 -1.777344 Z "/>
</g>
<g id="glyph-0-2">
<path d="M 0.484375 -0.585938 C 0.574219 -0.585938 0.648438 -0.554688 0.710938 -0.492188 C 0.773438 -0.429688 0.804688 -0.355469 0.804688 -0.269531 C 0.804688 -0.179688 0.773438 -0.105469 0.710938 -0.0429688 C 0.648438 0.015625 0.574219 0.046875 0.484375 0.046875 C 0.398438 0.046875 0.324219 0.015625 0.261719 -0.0429688 C 0.203125 -0.105469 0.171875 -0.179688 0.171875 -0.269531 C 0.171875 -0.355469 0.203125 -0.429688 0.261719 -0.492188 C 0.324219 -0.554688 0.398438 -0.585938 0.484375 -0.585938 Z "/>
</g>
<g id="glyph-0-3">
<rect x="0" y="0" width="0" height="0" mask="url(#mask-0)"/>
</g>
<g id="glyph-0-4">
<path d="M 1.050781 -1.167969 L 1.050781 -0.453125 C 1.050781 -0.3125 1.058594 -0.226562 1.074219 -0.1875 C 1.09375 -0.152344 1.125 -0.125 1.167969 -0.101562 C 1.210938 -0.0820312 1.289062 -0.0703125 1.40625 -0.0703125 L 1.40625 0 L 0.0976562 0 L 0.0976562 -0.0703125 C 0.21875 -0.0703125 0.296875 -0.0820312 0.339844 -0.101562 C 0.382812 -0.125 0.414062 -0.15625 0.429688 -0.191406 C 0.445312 -0.226562 0.457031 -0.3125 0.457031 -0.453125 L 0.457031 -2.125 C 0.457031 -2.261719 0.449219 -2.351562 0.429688 -2.386719 C 0.414062 -2.421875 0.382812 -2.453125 0.339844 -2.472656 C 0.296875 -2.496094 0.214844 -2.503906 0.0976562 -2.503906 L 0.0976562 -2.574219 L 1.222656 -2.574219 C 1.589844 -2.574219 1.855469 -2.507812 2.015625 -2.378906 C 2.175781 -2.246094 2.257812 -2.082031 2.257812 -1.882812 C 2.257812 -1.714844 2.207031 -1.574219 2.101562 -1.453125 C 2 -1.335938 1.855469 -1.253906 1.671875 -1.210938 C 1.550781 -1.179688 1.34375 -1.167969 1.050781 -1.167969 Z M 1.050781 -2.425781 L 1.050781 -1.3125 C 1.09375 -1.3125 1.125 -1.308594 1.144531 -1.308594 C 1.300781 -1.308594 1.417969 -1.355469 1.503906 -1.449219 C 1.585938 -1.539062 1.628906 -1.683594 1.628906 -1.875 C 1.628906 -2.066406 1.585938 -2.207031 1.503906 -2.292969 C 1.417969 -2.382812 1.292969 -2.425781 1.128906 -2.425781 Z "/>
</g>
<g id="glyph-0-5">
<path d="M 1.109375 -0.261719 C 0.894531 -0.0703125 0.699219 0.0234375 0.527344 0.0234375 C 0.425781 0.0234375 0.34375 -0.0078125 0.273438 -0.0742188 C 0.207031 -0.140625 0.175781 -0.226562 0.175781 -0.324219 C 0.175781 -0.460938 0.234375 -0.582031 0.347656 -0.691406 C 0.464844 -0.800781 0.71875 -0.941406 1.109375 -1.121094 L 1.109375 -1.300781 C 1.109375 -1.433594 1.105469 -1.519531 1.089844 -1.554688 C 1.074219 -1.589844 1.046875 -1.621094 1.007812 -1.644531 C 0.964844 -1.671875 0.921875 -1.683594 0.871094 -1.683594 C 0.789062 -1.683594 0.71875 -1.667969 0.667969 -1.628906 C 0.632812 -1.605469 0.617188 -1.582031 0.617188 -1.550781 C 0.617188 -1.523438 0.636719 -1.492188 0.671875 -1.449219 C 0.71875 -1.394531 0.742188 -1.34375 0.742188 -1.292969 C 0.742188 -1.230469 0.71875 -1.179688 0.671875 -1.136719 C 0.625 -1.089844 0.566406 -1.070312 0.492188 -1.070312 C 0.414062 -1.070312 0.34375 -1.09375 0.292969 -1.140625 C 0.238281 -1.1875 0.210938 -1.246094 0.210938 -1.308594 C 0.210938 -1.402344 0.246094 -1.488281 0.320312 -1.570312 C 0.390625 -1.652344 0.492188 -1.71875 0.621094 -1.761719 C 0.75 -1.804688 0.882812 -1.828125 1.023438 -1.828125 C 1.191406 -1.828125 1.324219 -1.792969 1.421875 -1.722656 C 1.519531 -1.652344 1.585938 -1.574219 1.613281 -1.488281 C 1.632812 -1.4375 1.640625 -1.3125 1.640625 -1.121094 L 1.640625 -0.433594 C 1.640625 -0.351562 1.644531 -0.300781 1.652344 -0.28125 C 1.65625 -0.257812 1.667969 -0.242188 1.679688 -0.234375 C 1.691406 -0.222656 1.707031 -0.21875 1.722656 -0.21875 C 1.753906 -0.21875 1.789062 -0.242188 1.824219 -0.289062 L 1.878906 -0.242188 C 1.816406 -0.148438 1.75 -0.0820312 1.683594 -0.0390625 C 1.617188 0.00390625 1.539062 0.0234375 1.453125 0.0234375 C 1.351562 0.0234375 1.273438 0 1.214844 -0.046875 C 1.160156 -0.09375 1.125 -0.164062 1.109375 -0.261719 Z M 1.109375 -0.402344 L 1.109375 -0.996094 C 0.957031 -0.90625 0.84375 -0.808594 0.769531 -0.707031 C 0.71875 -0.636719 0.695312 -0.570312 0.695312 -0.5 C 0.695312 -0.441406 0.714844 -0.390625 0.757812 -0.34375 C 0.789062 -0.3125 0.832031 -0.292969 0.890625 -0.292969 C 0.953125 -0.292969 1.027344 -0.328125 1.109375 -0.402344 Z "/>
</g>
<g id="glyph-0-6">
<path d="M 0.867188 -1.777344 L 0.867188 -1.542969 C 0.964844 -1.648438 1.054688 -1.722656 1.136719 -1.765625 C 1.222656 -1.808594 1.3125 -1.828125 1.410156 -1.828125 C 1.523438 -1.828125 1.621094 -1.800781 1.699219 -1.75 C 1.777344 -1.695312 1.835938 -1.613281 1.875 -1.507812 C 1.976562 -1.621094 2.074219 -1.703125 2.167969 -1.753906 C 2.261719 -1.804688 2.359375 -1.828125 2.460938 -1.828125 C 2.582031 -1.828125 2.679688 -1.800781 2.753906 -1.746094 C 2.824219 -1.6875 2.875 -1.617188 2.90625 -1.53125 C 2.933594 -1.445312 2.949219 -1.304688 2.949219 -1.113281 L 2.949219 -0.386719 C 2.949219 -0.25 2.960938 -0.164062 2.984375 -0.132812 C 3.007812 -0.101562 3.0625 -0.078125 3.140625 -0.0703125 L 3.140625 0 L 2.222656 0 L 2.222656 -0.0703125 C 2.292969 -0.0742188 2.347656 -0.101562 2.382812 -0.152344 C 2.40625 -0.1875 2.414062 -0.265625 2.414062 -0.386719 L 2.414062 -1.152344 C 2.414062 -1.308594 2.410156 -1.410156 2.398438 -1.453125 C 2.382812 -1.496094 2.363281 -1.527344 2.335938 -1.550781 C 2.308594 -1.570312 2.277344 -1.582031 2.242188 -1.582031 C 2.1875 -1.582031 2.132812 -1.558594 2.074219 -1.519531 C 2.019531 -1.480469 1.964844 -1.421875 1.90625 -1.339844 L 1.90625 -0.386719 C 1.90625 -0.257812 1.917969 -0.179688 1.9375 -0.144531 C 1.96875 -0.0976562 2.023438 -0.0742188 2.105469 -0.0703125 L 2.105469 0 L 1.1875 0 L 1.1875 -0.0703125 C 1.238281 -0.0703125 1.273438 -0.0820312 1.304688 -0.105469 C 1.332031 -0.128906 1.351562 -0.152344 1.359375 -0.183594 C 1.371094 -0.214844 1.375 -0.285156 1.375 -0.386719 L 1.375 -1.152344 C 1.375 -1.3125 1.367188 -1.414062 1.355469 -1.453125 C 1.34375 -1.492188 1.320312 -1.523438 1.292969 -1.546875 C 1.261719 -1.570312 1.230469 -1.582031 1.195312 -1.582031 C 1.144531 -1.582031 1.101562 -1.570312 1.058594 -1.542969 C 1 -1.503906 0.933594 -1.4375 0.867188 -1.339844 L 0.867188 -0.386719 C 0.867188 -0.261719 0.878906 -0.179688 0.90625 -0.140625 C 0.929688 -0.101562 0.980469 -0.0742188 1.058594 -0.0703125 L 1.058594 0 L 0.144531 0 L 0.144531 -0.0703125 C 0.21875 -0.078125 0.273438 -0.101562 0.304688 -0.140625 C 0.324219 -0.167969 0.335938 -0.25 0.335938 -0.386719 L 0.335938 -1.390625 C 0.335938 -1.523438 0.324219 -1.609375 0.300781 -1.640625 C 0.273438 -1.671875 0.222656 -1.695312 0.144531 -1.707031 L 0.144531 -1.777344 Z "/>
</g>
<g id="glyph-0-7">
<path d="M 0.835938 -2.425781 L 0.835938 -1.777344 L 1.257812 -1.777344 L 1.257812 -1.585938 L 0.835938 -1.585938 L 0.835938 -0.492188 C 0.835938 -0.390625 0.839844 -0.324219 0.851562 -0.292969 C 0.859375 -0.261719 0.875 -0.238281 0.898438 -0.222656 C 0.921875 -0.203125 0.945312 -0.195312 0.964844 -0.195312 C 1.046875 -0.195312 1.125 -0.257812 1.199219 -0.382812 L 1.257812 -0.339844 C 1.15625 -0.0976562 0.988281 0.0234375 0.757812 0.0234375 C 0.644531 0.0234375 0.550781 -0.0078125 0.472656 -0.0703125 C 0.394531 -0.132812 0.34375 -0.203125 0.324219 -0.277344 C 0.3125 -0.320312 0.304688 -0.4375 0.304688 -0.628906 L 0.304688 -1.585938 L 0.0703125 -1.585938 L 0.0703125 -1.652344 C 0.230469 -1.765625 0.367188 -1.886719 0.480469 -2.007812 C 0.59375 -2.132812 0.6875 -2.273438 0.773438 -2.425781 Z "/>
</g>
<g id="glyph-0-8">
<path d="M 0.855469 -2.574219 L 0.855469 -1.546875 C 0.953125 -1.648438 1.042969 -1.722656 1.125 -1.765625 C 1.207031 -1.808594 1.289062 -1.828125 1.375 -1.828125 C 1.488281 -1.828125 1.582031 -1.796875 1.664062 -1.734375 C 1.742188 -1.671875 1.792969 -1.597656 1.820312 -1.511719 C 1.847656 -1.425781 1.859375 -1.28125 1.859375 -1.078125 L 1.859375 -0.386719 C 1.859375 -0.25 1.871094 -0.164062 1.898438 -0.132812 C 1.921875 -0.0976562 1.972656 -0.078125 2.050781 -0.0703125 L 2.050781 0 L 1.152344 0 L 1.152344 -0.0703125 C 1.214844 -0.078125 1.261719 -0.101562 1.292969 -0.144531 C 1.316406 -0.175781 1.328125 -0.257812 1.328125 -0.386719 L 1.328125 -1.175781 C 1.328125 -1.324219 1.320312 -1.417969 1.308594 -1.453125 C 1.296875 -1.492188 1.28125 -1.519531 1.253906 -1.542969 C 1.226562 -1.5625 1.195312 -1.574219 1.160156 -1.574219 C 1.109375 -1.574219 1.058594 -1.554688 1.011719 -1.519531 C 0.964844 -1.484375 0.914062 -1.425781 0.855469 -1.335938 L 0.855469 -0.386719 C 0.855469 -0.257812 0.867188 -0.179688 0.886719 -0.148438 C 0.910156 -0.105469 0.957031 -0.078125 1.03125 -0.0703125 L 1.03125 0 L 0.132812 0 L 0.132812 -0.0703125 C 0.207031 -0.078125 0.261719 -0.101562 0.292969 -0.140625 C 0.3125 -0.167969 0.324219 -0.25 0.324219 -0.386719 L 0.324219 -2.191406 C 0.324219 -2.324219 0.3125 -2.40625 0.289062 -2.441406 C 0.261719 -2.472656 0.210938 -2.496094 0.132812 -2.503906 L 0.132812 -2.574219 Z "/>
</g>
<g id="glyph-0-9">
<path d="M 1.828125 -2.632812 L 1.847656 -1.777344 L 1.769531 -1.777344 C 1.734375 -1.992188 1.644531 -2.164062 1.5 -2.296875 C 1.355469 -2.425781 1.199219 -2.492188 1.03125 -2.492188 C 0.902344 -2.492188 0.800781 -2.457031 0.726562 -2.386719 C 0.652344 -2.320312 0.613281 -2.238281 0.613281 -2.148438 C 0.613281 -2.09375 0.625 -2.042969 0.652344 -1.996094 C 0.691406 -1.9375 0.75 -1.878906 0.828125 -1.820312 C 0.890625 -1.777344 1.027344 -1.707031 1.242188 -1.597656 C 1.542969 -1.449219 1.746094 -1.3125 1.851562 -1.179688 C 1.957031 -1.046875 2.007812 -0.898438 2.007812 -0.726562 C 2.007812 -0.511719 1.921875 -0.328125 1.753906 -0.171875 C 1.585938 -0.015625 1.375 0.0625 1.117188 0.0625 C 1.035156 0.0625 0.960938 0.0507812 0.886719 0.0351562 C 0.816406 0.0195312 0.722656 -0.0117188 0.617188 -0.0585938 C 0.554688 -0.0820312 0.503906 -0.09375 0.464844 -0.09375 C 0.433594 -0.09375 0.398438 -0.0820312 0.359375 -0.0585938 C 0.324219 -0.03125 0.292969 0.0078125 0.273438 0.0585938 L 0.203125 0.0585938 L 0.203125 -0.914062 L 0.273438 -0.914062 C 0.328125 -0.640625 0.433594 -0.429688 0.59375 -0.289062 C 0.753906 -0.144531 0.921875 -0.0703125 1.105469 -0.0703125 C 1.25 -0.0703125 1.363281 -0.109375 1.445312 -0.1875 C 1.53125 -0.265625 1.574219 -0.355469 1.574219 -0.457031 C 1.574219 -0.519531 1.554688 -0.578125 1.523438 -0.632812 C 1.492188 -0.691406 1.441406 -0.746094 1.375 -0.796875 C 1.308594 -0.847656 1.195312 -0.914062 1.027344 -0.996094 C 0.792969 -1.113281 0.625 -1.210938 0.523438 -1.292969 C 0.421875 -1.371094 0.339844 -1.464844 0.285156 -1.5625 C 0.230469 -1.664062 0.203125 -1.773438 0.203125 -1.894531 C 0.203125 -2.097656 0.277344 -2.273438 0.429688 -2.417969 C 0.578125 -2.5625 0.769531 -2.632812 1 -2.632812 C 1.082031 -2.632812 1.164062 -2.625 1.242188 -2.605469 C 1.300781 -2.589844 1.375 -2.558594 1.460938 -2.519531 C 1.546875 -2.476562 1.605469 -2.457031 1.640625 -2.457031 C 1.671875 -2.457031 1.699219 -2.46875 1.71875 -2.488281 C 1.738281 -2.507812 1.753906 -2.558594 1.769531 -2.632812 Z "/>
</g>
<g id="glyph-0-10">
<path d="M 0.558594 -2.636719 C 0.640625 -2.636719 0.710938 -2.605469 0.765625 -2.550781 C 0.824219 -2.492188 0.851562 -2.421875 0.851562 -2.339844 C 0.851562 -2.261719 0.824219 -2.191406 0.765625 -2.132812 C 0.707031 -2.078125 0.640625 -2.050781 0.558594 -2.050781 C 0.476562 -2.050781 0.410156 -2.078125 0.351562 -2.132812 C 0.292969 -2.191406 0.265625 -2.261719 0.265625 -2.339844 C 0.265625 -2.421875 0.292969 -2.492188 0.351562 -2.550781 C 0.410156 -2.609375 0.476562 -2.636719 0.558594 -2.636719 Z M 0.824219 -1.777344 L 0.824219 -0.367188 C 0.824219 -0.242188 0.839844 -0.164062 0.867188 -0.128906 C 0.898438 -0.09375 0.953125 -0.0742188 1.039062 -0.0703125 L 1.039062 0 L 0.078125 0 L 0.078125 -0.0703125 C 0.15625 -0.0703125 0.214844 -0.09375 0.253906 -0.136719 C 0.28125 -0.164062 0.292969 -0.242188 0.292969 -0.367188 L 0.292969 -1.40625 C 0.292969 -1.53125 0.277344 -1.609375 0.25 -1.644531 C 0.21875 -1.679688 0.164062 -1.699219 0.078125 -1.707031 L 0.078125 -1.777344 Z "/>
</g>
<g id="glyph-0-11">
<path d="M 0.855469 -1.777344 L 0.855469 -1.546875 C 0.949219 -1.644531 1.035156 -1.714844 1.117188 -1.761719 C 1.203125 -1.804688 1.292969 -1.828125 1.386719 -1.828125 C 1.503906 -1.828125 1.597656 -1.796875 1.675781 -1.734375 C 1.75 -1.667969 1.800781 -1.589844 1.828125 -1.496094 C 1.847656 -1.421875 1.859375 -1.285156 1.859375 -1.078125 L 1.859375 -0.386719 C 1.859375 -0.25 1.871094 -0.164062 1.894531 -0.132812 C 1.917969 -0.0976562 1.972656 -0.078125 2.050781 -0.0703125 L 2.050781 0 L 1.152344 0 L 1.152344 -0.0703125 C 1.21875 -0.078125 1.265625 -0.105469 1.296875 -0.152344 C 1.316406 -0.183594 1.324219 -0.261719 1.324219 -0.386719 L 1.324219 -1.175781 C 1.324219 -1.324219 1.320312 -1.414062 1.308594 -1.453125 C 1.296875 -1.492188 1.277344 -1.519531 1.25 -1.542969 C 1.222656 -1.5625 1.191406 -1.574219 1.160156 -1.574219 C 1.050781 -1.574219 0.949219 -1.496094 0.855469 -1.339844 L 0.855469 -0.386719 C 0.855469 -0.253906 0.867188 -0.171875 0.894531 -0.136719 C 0.917969 -0.101562 0.964844 -0.078125 1.03125 -0.0703125 L 1.03125 0 L 0.132812 0 L 0.132812 -0.0703125 C 0.207031 -0.078125 0.261719 -0.101562 0.292969 -0.140625 C 0.3125 -0.167969 0.324219 -0.25 0.324219 -0.386719 L 0.324219 -1.390625 C 0.324219 -1.523438 0.3125 -1.609375 0.289062 -1.640625 C 0.261719 -1.671875 0.210938 -1.695312 0.132812 -1.707031 L 0.132812 -1.777344 Z "/>
</g>
</g>
<image id="source-61" x="0" y="0" width="0" height="0"/>
<mask id="mask-0">
<use xlink:href="#source-61"/>
</mask>
</defs>
<g fill="rgb(77.647059%, 78.039216%, 86.27451%)" fill-opacity="1">
<use xlink:href="#glyph-0-0" x="30" y="23.46582"/>
<use xlink:href="#glyph-0-1" x="33" y="23.46582"/>
<use xlink:href="#glyph-0-2" x="35" y="23.46582"/>
<use xlink:href="#glyph-0-3" x="36" y="23.46582"/>
<use xlink:href="#glyph-0-4" x="37" y="23.46582"/>
<use xlink:href="#glyph-0-1" x="39" y="23.46582"/>
<use xlink:href="#glyph-0-5" x="41" y="23.46582"/>
<use xlink:href="#glyph-0-6" x="43" y="23.46582"/>
<use xlink:href="#glyph-0-5" x="46" y="23.46582"/>
<use xlink:href="#glyph-0-7" x="48" y="23.46582"/>
<use xlink:href="#glyph-0-8" x="49" y="23.46582"/>
<use xlink:href="#glyph-0-3" x="51" y="23.46582"/>
<use xlink:href="#glyph-0-9" x="52" y="23.46582"/>
<use xlink:href="#glyph-0-10" x="54" y="23.46582"/>
<use xlink:href="#glyph-0-11" x="55" y="23.46582"/>
<use xlink:href="#glyph-0-8" x="57" y="23.46582"/>
<use xlink:href="#glyph-0-5" x="59" y="23.46582"/>
</g>
</svg>
