<?xml version="1.0" encoding="UTF-8"?>
<svg xmlns="http://www.w3.org/2000/svg" xmlns:xlink="http://www.w3.org/1999/xlink" width="854" height="480" viewBox="0 0 854 480">
<defs>
<g>
<g id="glyph-0-0">
<path d="M 0.582031 -4.878906 L 3.964844 -4.878906 L 3.964844 -4.28125 L 1.242188 -4.28125 L 1.242188 -2.800781 L 3.636719 -2.800781 L 3.636719 -2.21875 L 1.242188 -2.21875 L 1.242188 0 L 0.582031 0 Z "/>
</g>
<g id="glyph-0-1">
<path d="M 1.847656 -0.386719 C 2.246094 -0.386719 2.515625 -0.535156 2.664062 -0.835938 C 2.8125 -1.136719 2.886719 -1.46875 2.886719 -1.835938 C 2.886719 -2.167969 2.832031 -2.4375 2.726562 -2.644531 C 2.558594 -2.972656 2.269531 -3.136719 1.855469 -3.136719 C 1.492188 -3.136719 1.226562 -3 1.058594 -2.71875 C 0.894531 -2.441406 0.808594 -2.105469 0.808594 -1.710938 C 0.808594 -1.332031 0.894531 -1.015625 1.058594 -0.761719 C 1.226562 -0.511719 1.488281 -0.386719 1.847656 -0.386719 Z M 1.871094 -3.660156 C 2.332031 -3.660156 2.71875 -3.507812 3.035156 -3.199219 C 3.351562 -2.894531 3.507812 -2.445312 3.507812 -1.851562 C 3.507812 -1.277344 3.371094 -0.804688 3.089844 -0.429688 C 2.8125 -0.0585938 2.378906 0.128906 1.792969 0.128906 C 1.304688 0.128906 0.914062 -0.0351562 0.628906 -0.367188 C 0.339844 -0.699219 0.195312 -1.140625 0.195312 -1.699219 C 0.195312 -2.296875 0.347656 -2.773438 0.652344 -3.128906 C 0.953125 -3.480469 1.359375 -3.660156 1.871094 -3.660156 Z "/>
</g>
<g id="glyph-0-2">
<path d="M 0.453125 -3.554688 L 1.023438 -3.554688 L 1.023438 -2.941406 C 1.070312 -3.0625 1.183594 -3.207031 1.363281 -3.378906 C 1.546875 -3.550781 1.753906 -3.636719 1.992188 -3.636719 C 2.003906 -3.636719 2.023438 -3.632812 2.046875 -3.632812 C 2.074219 -3.628906 2.121094 -3.625 2.183594 -3.617188 L 2.183594 -2.988281 C 2.148438 -2.996094 2.117188 -3 2.085938 -3 C 2.054688 -3.003906 2.023438 -3.003906 1.988281 -3.003906 C 1.6875 -3.003906 1.457031 -2.90625 1.292969 -2.714844 C 1.132812 -2.519531 1.050781 -2.296875 1.050781 -2.046875 L 1.050781 0 L 0.453125 0 Z "/>
</g>
</g>
</defs>
<g fill="rgb(100%, 100%, 100%)" fill-opacity="1">
<use xlink:href="#glyph-0-0" x="30" y="25.236328"/>
<use xlink:href="#glyph-0-1" x="34" y="25.236328"/>
<use xlink:href="#glyph-0-2" x="38" y="25.236328"/>
</g>
</svg>
