<?xml version="1.0" encoding="UTF-8"?>
<svg xmlns="http://www.w3.org/2000/svg" xmlns:xlink="http://www.w3.org/1999/xlink" width="854" height="480" viewBox="0 0 854 480">
<defs>
<g>
<g id="glyph-0-0">
<path d="M 3.433594 -6.542969 C 4.03125 -6.542969 4.550781 -6.425781 4.988281 -6.195312 C 5.621094 -5.863281 6.007812 -5.277344 6.152344 -4.445312 L 5.296875 -4.445312 C 5.191406 -4.910156 4.976562 -5.25 4.648438 -5.460938 C 4.320312 -5.675781 3.910156 -5.78125 3.410156 -5.78125 C 2.820312 -5.78125 2.324219 -5.558594 1.921875 -5.117188 C 1.515625 -4.675781 1.316406 -4.015625 1.316406 -3.136719 C 1.316406 -2.378906 1.480469 -1.761719 1.8125 -1.285156 C 2.148438 -0.808594 2.691406 -0.574219 3.441406 -0.574219 C 4.019531 -0.574219 4.496094 -0.738281 4.871094 -1.074219 C 5.25 -1.410156 5.441406 -1.949219 5.453125 -2.695312 L 3.457031 -2.695312 L 3.457031 -3.410156 L 6.253906 -3.410156 L 6.253906 0 L 5.699219 0 L 5.492188 -0.820312 C 5.199219 -0.5 4.941406 -0.277344 4.714844 -0.152344 C 4.335938 0.0625 3.851562 0.167969 3.269531 0.167969 C 2.511719 0.167969 1.863281 -0.0742188 1.320312 -0.5625 C 0.726562 -1.175781 0.429688 -2.019531 0.429688 -3.089844 C 0.429688 -4.15625 0.71875 -5.007812 1.296875 -5.636719 C 1.847656 -6.238281 2.558594 -6.542969 3.433594 -6.542969 Z "/>
</g>
<g id="glyph-0-1">
<path d="M 0.59375 -6.375 L 1.375 -6.375 L 1.375 0 L 0.59375 0 Z "/>
</g>
<g id="glyph-0-2">
<path d="M 2.417969 -0.503906 C 2.9375 -0.503906 3.289062 -0.699219 3.484375 -1.089844 C 3.675781 -1.484375 3.773438 -1.921875 3.773438 -2.398438 C 3.773438 -2.832031 3.703125 -3.1875 3.5625 -3.460938 C 3.34375 -3.886719 2.964844 -4.101562 2.425781 -4.101562 C 1.949219 -4.101562 1.601562 -3.917969 1.382812 -3.554688 C 1.167969 -3.191406 1.058594 -2.75 1.058594 -2.234375 C 1.058594 -1.742188 1.167969 -1.328125 1.382812 -1 C 1.601562 -0.667969 1.945312 -0.503906 2.417969 -0.503906 Z M 2.449219 -4.785156 C 3.046875 -4.785156 3.554688 -4.582031 3.96875 -4.183594 C 4.382812 -3.785156 4.589844 -3.199219 4.589844 -2.421875 C 4.589844 -1.671875 4.40625 -1.054688 4.042969 -0.5625 C 3.675781 -0.0742188 3.109375 0.167969 2.34375 0.167969 C 1.703125 0.167969 1.195312 -0.046875 0.820312 -0.480469 C 0.445312 -0.914062 0.257812 -1.492188 0.257812 -2.222656 C 0.257812 -3.003906 0.453125 -3.625 0.851562 -4.089844 C 1.246094 -4.550781 1.78125 -4.785156 2.449219 -4.785156 Z "/>
</g>
<g id="glyph-0-3">
<path d="M 0.511719 -6.398438 L 1.273438 -6.398438 L 1.273438 -4.085938 C 1.441406 -4.308594 1.648438 -4.476562 1.882812 -4.59375 C 2.121094 -4.710938 2.378906 -4.769531 2.65625 -4.769531 C 3.234375 -4.769531 3.703125 -4.570312 4.066406 -4.171875 C 4.425781 -3.773438 4.605469 -3.1875 4.605469 -2.414062 C 4.605469 -1.679688 4.425781 -1.066406 4.070312 -0.582031 C 3.714844 -0.09375 3.222656 0.148438 2.589844 0.148438 C 2.238281 0.148438 1.941406 0.0625 1.695312 -0.109375 C 1.550781 -0.210938 1.398438 -0.371094 1.234375 -0.59375 L 1.234375 0 L 0.511719 0 Z M 2.542969 -0.542969 C 2.964844 -0.542969 3.28125 -0.710938 3.492188 -1.046875 C 3.703125 -1.382812 3.808594 -1.824219 3.808594 -2.375 C 3.808594 -2.863281 3.703125 -3.269531 3.492188 -3.589844 C 3.28125 -3.910156 2.972656 -4.070312 2.566406 -4.070312 C 2.210938 -4.070312 1.898438 -3.941406 1.628906 -3.675781 C 1.363281 -3.414062 1.226562 -2.980469 1.226562 -2.375 C 1.226562 -1.9375 1.285156 -1.582031 1.394531 -1.3125 C 1.597656 -0.800781 1.980469 -0.542969 2.542969 -0.542969 Z "/>
</g>
<g id="glyph-0-4">
<path d="M 1.171875 -1.238281 C 1.171875 -1.011719 1.253906 -0.832031 1.417969 -0.703125 C 1.582031 -0.574219 1.78125 -0.507812 2.003906 -0.507812 C 2.28125 -0.507812 2.546875 -0.570312 2.804688 -0.699219 C 3.238281 -0.910156 3.457031 -1.257812 3.457031 -1.734375 L 3.457031 -2.367188 C 3.359375 -2.304688 3.238281 -2.253906 3.085938 -2.214844 C 2.9375 -2.171875 2.789062 -2.144531 2.644531 -2.125 L 2.171875 -2.066406 C 1.886719 -2.027344 1.675781 -1.96875 1.53125 -1.886719 C 1.292969 -1.75 1.171875 -1.535156 1.171875 -1.238281 Z M 3.066406 -2.816406 C 3.246094 -2.839844 3.363281 -2.914062 3.425781 -3.042969 C 3.460938 -3.113281 3.476562 -3.210938 3.476562 -3.34375 C 3.476562 -3.609375 3.382812 -3.800781 3.191406 -3.921875 C 3.003906 -4.042969 2.730469 -4.101562 2.378906 -4.101562 C 1.972656 -4.101562 1.679688 -3.992188 1.511719 -3.773438 C 1.414062 -3.652344 1.351562 -3.46875 1.324219 -3.230469 L 0.59375 -3.230469 C 0.609375 -3.804688 0.796875 -4.199219 1.152344 -4.425781 C 1.511719 -4.648438 1.925781 -4.761719 2.394531 -4.761719 C 2.941406 -4.761719 3.386719 -4.65625 3.730469 -4.449219 C 4.066406 -4.242188 4.238281 -3.917969 4.238281 -3.476562 L 4.238281 -0.796875 C 4.238281 -0.71875 4.253906 -0.652344 4.285156 -0.601562 C 4.320312 -0.554688 4.390625 -0.53125 4.496094 -0.53125 C 4.53125 -0.53125 4.570312 -0.53125 4.613281 -0.535156 C 4.65625 -0.539062 4.703125 -0.546875 4.753906 -0.554688 L 4.753906 0.0234375 C 4.632812 0.0585938 4.539062 0.078125 4.476562 0.0859375 C 4.410156 0.09375 4.324219 0.101562 4.214844 0.101562 C 3.945312 0.101562 3.75 0.00390625 3.628906 -0.1875 C 3.566406 -0.289062 3.519531 -0.429688 3.496094 -0.617188 C 3.335938 -0.410156 3.105469 -0.226562 2.808594 -0.0742188 C 2.511719 0.078125 2.183594 0.15625 1.824219 0.15625 C 1.390625 0.15625 1.039062 0.0234375 0.765625 -0.238281 C 0.492188 -0.5 0.355469 -0.824219 0.355469 -1.21875 C 0.355469 -1.652344 0.492188 -1.984375 0.757812 -2.222656 C 1.027344 -2.460938 1.382812 -2.605469 1.820312 -2.660156 Z "/>
</g>
</g>
</defs>
<g fill="rgb(97.254902%, 98.039216%, 98.823529%)" fill-opacity="1">
<use xlink:href="#glyph-0-0" x="30" y="26.844727"/>
<use xlink:href="#glyph-0-1" x="37" y="26.844727"/>
<use xlink:href="#glyph-0-2" x="39" y="26.844727"/>
<use xlink:href="#glyph-0-3" x="44" y="26.844727"/>
<use xlink:href="#glyph-0-4" x="49" y="26.844727"/>
<use xlink:href="#glyph-0-1" x="54" y="26.844727"/>
</g>
</svg>
